<?xml version="1.0" standalone="no"?>
<!DOCTYPE svg PUBLIC "-//W3C//DTD SVG 20010904//EN"
 "http://www.w3.org/TR/2001/REC-SVG-20010904/DTD/svg10.dtd">
<svg version="1.0" xmlns="http://www.w3.org/2000/svg"
 width="472.000000pt" height="472.000000pt" viewBox="0 0 472.000000 472.000000"
 preserveAspectRatio="xMidYMid meet">
<metadata>
Created by potrace 1.14, written by Peter Selinger 2001-2017
</metadata>
<g transform="translate(0.000000,472.000000) scale(0.100000,-0.100000)"
fill="#000000" stroke="none">
<path d="M932 4454 c-280 -293 -504 -695 -607 -1092 -199 -765 -24 -1579 473
-2202 182 -227 438 -446 692 -592 642 -368 1414 -436 2105 -186 305 110 628
309 861 530 69 65 74 74 74 112 l0 41 -1728 1727 c-1717 1718 -1727 1728
-1767 1728 -36 0 -46 -6 -103 -66z m154 -308 c-267 -308 -437 -682 -502 -1106
-25 -158 -25 -462 0 -620 83 -538 348 -1019 745 -1352 593 -496 1377 -646
2111 -402 233 77 476 210 660 360 39 33 83 68 96 79 l24 19 50 -49 c59 -58 63
-48 -71 -155 -315 -251 -660 -407 -1074 -482 -104 -19 -156 -23 -380 -23 -229
0 -275 3 -390 24 -511 92 -951 326 -1299 692 -809 851 -852 2180 -100 3087
l77 93 53 -52 53 -52 -53 -61z"/>
</g>
</svg>
