<?xml version="1.0" standalone="no"?>
<!DOCTYPE svg PUBLIC "-//W3C//DTD SVG 20010904//EN"
 "http://www.w3.org/TR/2001/REC-SVG-20010904/DTD/svg10.dtd">
<svg version="1.0" xmlns="http://www.w3.org/2000/svg"
 width="1024.000000pt" height="1024.000000pt" viewBox="0 0 1024.000000 1024.000000"
 preserveAspectRatio="xMidYMid meet">
<metadata>
Created by potrace 1.11, written by Peter Selinger 2001-2013
</metadata>
<g transform="translate(0.000000,1024.000000) scale(0.100000,-0.100000)"
fill="#000000" stroke="none">
<path d="M4587 9164 c-1 -1 -60 -5 -132 -8 -71 -4 -143 -9 -160 -11 -16 -2
-57 -7 -90 -10 -302 -29 -669 -107 -963 -205 -68 -23 -234 -83 -368 -135 -135
-52 -249 -95 -255 -95 -17 0 -207 -78 -297 -122 -361 -176 -739 -474 -974
-768 -33 -41 -66 -84 -75 -94 -43 -53 -150 -228 -201 -328 -50 -97 -124 -289
-136 -353 -3 -11 -9 -40 -15 -65 -57 -249 -59 -513 -6 -679 6 -21 5 -22 -36
-16 -88 13 -164 -29 -201 -111 -28 -64 -19 -157 20 -207 31 -41 85 -87 101
-87 22 0 10 -18 -19 -30 -41 -17 -126 -8 -220 24 -121 41 -211 31 -258 -28
-33 -43 -37 -80 -12 -131 19 -39 31 -49 114 -90 108 -54 121 -69 99 -113 -17
-34 -20 -36 -106 -51 -64 -12 -94 -30 -128 -79 -49 -72 -14 -200 76 -280 91
-80 200 -67 315 38 59 53 80 65 80 46 0 -8 12 -28 26 -45 35 -42 81 -49 138
-22 61 30 90 34 130 17 36 -15 66 -59 66 -96 0 -12 -9 -60 -21 -107 -26 -106
-20 -157 25 -216 l33 -43 -86 -54 c-105 -67 -216 -174 -226 -219 -5 -25 0 -43
25 -87 l31 -56 -25 -39 c-48 -73 -95 -165 -117 -235 -17 -54 -22 -91 -22 -173
1 -78 -3 -111 -14 -128 -23 -35 -19 -105 16 -235 18 -64 38 -147 46 -185 21
-106 23 -113 44 -157 37 -76 113 -138 221 -180 25 -9 75 -31 111 -47 l66 -31
2 -50 c1 -28 3 -53 5 -57 2 -3 7 -33 10 -66 4 -33 11 -73 16 -90 45 -153 116
-322 167 -400 49 -76 128 -190 143 -209 345 -420 836 -720 1515 -926 80 -24
415 -107 460 -114 17 -2 37 -6 45 -9 8 -3 33 -8 55 -11 22 -3 63 -9 90 -15 59
-11 255 -41 305 -47 19 -2 53 -6 75 -8 90 -12 151 -18 310 -31 39 -3 93 -8
120 -10 304 -25 1019 -25 1435 0 81 5 234 17 250 20 8 1 56 6 105 9 50 4 97 9
105 11 8 2 42 7 75 10 97 11 108 12 155 19 213 32 417 70 580 108 47 11 94 21
105 24 11 2 74 20 140 39 66 20 127 37 135 39 62 15 363 127 418 155 9 5 67
32 127 61 603 285 1014 733 1161 1268 41 148 73 341 62 379 -5 17 -28 54 -53
81 l-44 49 67 23 c92 33 232 129 292 201 50 60 124 199 136 254 14 65 13 251
-1 320 -37 178 -53 214 -129 286 -35 33 -35 33 -17 54 10 11 25 31 32 45 19
35 16 206 -5 309 l-17 84 54 51 c68 65 100 108 137 184 81 169 96 405 38 607
-42 144 -130 258 -336 436 l-54 47 18 33 c10 19 19 39 21 44 1 6 10 35 19 65
17 61 23 219 11 320 -9 83 -16 118 -42 226 -56 227 -206 630 -311 831 -46 88
-145 248 -163 263 -4 3 -15 18 -24 33 -10 16 -51 65 -90 110 -237 270 -538
492 -907 668 -47 22 -93 45 -103 50 -51 28 -334 134 -487 183 -319 103 -651
178 -1120 251 -14 2 -63 9 -110 15 -116 15 -161 21 -190 25 -63 9 -176 20
-305 30 -44 3 -96 8 -115 10 -19 3 -80 7 -135 10 -55 3 -111 8 -125 10 -70 11
-722 27 -733 19z"/>
</g>
</svg>
